<svg width="32" height="32" viewBox="0 0 32 32" fill="none" xmlns="http://www.w3.org/2000/svg">
<circle cx="16" cy="16" r="15.75" fill="#333333" stroke="#C5F82A" stroke-width="0.5"/>
<path d="M14.6367 16.6875L14.0625 16.6992C13.5469 18.1992 13.125 19.5 12.7969 20.6016C12.4688 21.6953 12.2031 22.4102 12 22.7461C11.8047 23.0742 11.5898 23.3398 11.3555 23.543C11.1289 23.7383 10.8359 23.8867 10.4766 23.9883C9.88281 24.1523 9.07812 24.2344 8.0625 24.2344C7.04688 24.2344 6.07031 24.1211 5.13281 23.8945C4.20312 23.668 3.46094 23.3906 2.90625 23.0625C2.35156 22.7266 2.07422 22.4023 2.07422 22.0898C2.07422 21.9102 2.15234 21.7695 2.30859 21.668C2.45703 21.5586 2.63281 21.5039 2.83594 21.5039C3.55469 21.5039 4.08203 21.3906 4.41797 21.1641C4.76172 20.9297 5.08594 20.5039 5.39062 19.8867C5.69531 19.2695 5.99609 18.5547 6.29297 17.7422C6.59766 16.9297 6.87891 16.1758 7.13672 15.4805C7.40234 14.7852 7.70703 14.0742 8.05078 13.3477C8.78516 11.7852 9.69531 10.7422 10.7812 10.2188C11.3047 9.96875 12 9.77734 12.8672 9.64453C13.7344 9.50391 14.4102 9.43359 14.8945 9.43359C15.3789 9.43359 15.6953 9.44141 15.8438 9.45703C15.9922 9.46484 16.1406 9.48828 16.2891 9.52734C16.5938 9.60547 16.7461 9.77734 16.7461 10.043C16.7461 10.207 16.7148 10.3594 16.6523 10.5C16.5898 10.6406 16.3984 10.9805 16.0781 11.5195C15.7656 12.0508 15.2266 13.3945 14.4609 15.5508C18.6094 15.0664 20.6836 13.5508 20.6836 11.0039C20.6836 10.1445 20.4141 9.5 19.875 9.07031C19.3203 8.64062 18.7578 8.37891 18.1875 8.28516C17.3359 8.14453 16.3984 8.07422 15.375 8.07422C14.3594 8.07422 13.2969 8.17188 12.1875 8.36719C11.0781 8.55469 10.2148 8.76562 9.59766 9C8.98828 9.22656 8.44141 9.4375 7.95703 9.63281C7.48047 9.82031 7.17578 9.91406 7.04297 9.91406C6.62891 9.91406 6.42188 9.77734 6.42188 9.50391C6.42188 9.16016 6.64453 8.84766 7.08984 8.56641C8.63672 7.57422 10.4062 6.82031 12.3984 6.30469C14.3906 5.78906 16.8867 5.53125 19.8867 5.53125C21.4258 5.53125 22.7109 5.69141 23.7422 6.01172C24.7734 6.32422 25.5625 6.65625 26.1094 7.00781C26.6641 7.35156 27.1172 7.80859 27.4688 8.37891C27.8203 8.94922 27.9961 9.57422 27.9961 10.2539C27.9961 10.9336 27.8672 11.5352 27.6094 12.0586C27.3516 12.5742 26.9961 13.0195 26.543 13.3945C26.0977 13.7617 25.5312 14.0938 24.8438 14.3906C23.6562 14.8984 22.0508 15.3125 20.0273 15.6328C21.5742 15.6328 22.7969 15.8984 23.6953 16.4297C24.5938 16.9609 25.043 17.7109 25.043 18.6797L24.832 20.7656C24.832 21.3281 25.1172 21.6484 25.6875 21.7266C25.9297 21.7656 26.1719 21.7969 26.4141 21.8203C26.9844 21.8672 27.2695 22.0859 27.2695 22.4766C27.2695 23.0078 26.6055 23.4727 25.2773 23.8711C23.957 24.2695 22.5078 24.4688 20.9297 24.4688C17.9531 24.4688 16.4648 23.5977 16.4648 21.8555C16.4648 21.4336 16.5938 20.832 16.8516 20.0508C17.1094 19.2695 17.2383 18.7461 17.2383 18.4805C17.2383 17.9883 17.0352 17.5664 16.6289 17.2148C16.2227 16.8633 15.5586 16.6875 14.6367 16.6875Z" fill="#C5F82A"/>
</svg>
